<?xml version="1.0" encoding="UTF-8"?>
<svg id="Layer_2" data-name="Layer 2" xmlns="http://www.w3.org/2000/svg" viewBox="0 0 2791.28 1064.76">
  <defs>
    <style>
      .cls-1 {
        fill: #fff;
      }

      .cls-2 {
        fill: none;
      }
    </style>
  </defs>
  <g id="Layer_3" data-name="Layer 3">
    <g id="Layer_1-2" data-name="Layer 1">
      <g>
        <g>
          <polygon class="cls-1" points="849.51 362.13 739.51 652.31 633.58 362.13 576.82 362.13 600.49 426.93 514.81 652.31 409.33 362.13 352.58 362.13 481.31 714.64 497.92 714.64 603.67 435.64 705.56 714.64 722.17 714.64 855.97 362.13 849.51 362.13"/>
          <g>
            <path class="cls-1" d="M976.52,681.19c-2.42,1.55-4.86,3.04-7.27,4.46-1.44-2.97-2.67-6.24-3.7-9.81-1.16-3.96-2.1-8.28-2.85-13.02l-.35-8.62c0-8.53-.69-33.81-.69-42.92v-22.6c-85.36,0-103.36,40.14-103.36,69.21,0,25.38,14.31,43.36,39.68,43.36,3.51,0,7.22-.17,10.89-.75,3.85-.6,7.67-1.63,11.18-3.37.48,2.58,1.24,5.38,2.36,8.03-3.45,2.1-7.15,3.91-11.09,5.47-.03.02-.05.02-.08.02-12.57,4.97-27.61,7.22-44.63,7.22-34.15,0-60.44-18-60.44-51.21,0-40.14,36.91-78.44,155.49-83.52v-37.84c0-42.44-18.92-71.05-64.14-71.97-42.44-.46-68.29,29.53-68.29,64.14,0,19.84,7.85,35.07,16.62,45.22l-3.7,3.7c-8.77-9.23-18.46-26.77-18.46-48.91,0-40.6,30.91-73.83,90.43-74.29,55.37,0,99.66,28.15,99.66,92.27v78.9c0,.52,0,1.04.02,1.56,0,5.18.09,10.07.28,14.66v.02c-.09.09-.18.2-.29.28-8.57,8.86-17.53,16.42-26.34,22.85-3.68,2.68-7.33,5.17-10.93,7.47Z"/>
            <path class="cls-1" d="M1045.64,714.64h-14.51c-31.72-2.01-49.49-8.48-59.38-24.41,7.1-3.27,24.26-15.35,42.69-32.8,2.32,37.69,11.33,53.71,31.2,57.21Z"/>
          </g>
          <path class="cls-1" d="M1196.06,463.18c-34.22,0-71.94,17.92-85.82,54.67v-53.75l-52.14,10.61v239.93h52.14v-165.64c0-52.14,42.45-75.67,70.6-75.67,38.3,0,49.37,23.53,49.37,67.83v173.49h52.14v-158.72c0-68.75-35.07-92.74-86.28-92.74Z"/>
          <path class="cls-1" d="M1504.28,364.89v154.59c-12.97-40.72-46.74-55.84-79.36-55.84-60.44,0-117.19,51.21-117.19,130.58s53.51,124.12,113.04,124.12c33.03,0,69.83-16.08,83.52-60.03v56.33h52.13v-360.36l-52.13,10.61ZM1504.28,619.13c0,60.9-35.53,88.59-67.83,89.05-54.89.46-75.21-59.98-75.21-113.97,0-77.98,30.93-122.27,73.83-122.27,34.61,0,69.21,25.84,69.21,86.74v60.44Z"/>
          <path class="cls-1" d="M1653.97,520.85l-.92-153.19h36.45c45.22,0,66.44,24.45,66.9,70.59.43,47.14-19.9,116.21-77.45,120.74.57,1.98.72,4.1.43,6.15h8.74c39.22,0,61.7,16.1,82.92,58.55l44.89,90.95h56.29l-48.57-95.1c-17.04-33.67-44.62-53.28-101.17-58.77,57.94-10.14,84.59-76.75,84.23-122.97-.46-53.06-48.45-75.67-104.28-75.67h-102.43v352.51h53.06l.92-188.25v-5.54Z"/>
          <path class="cls-1" d="M1068.45,507c0,26.54-3.88,49.73-10.37,69.95-9.98,31.08-26.17,55.15-44.01,73.63-.09.11-.18.2-.29.29-8.57,8.86-17.53,16.42-26.34,22.85-3.68,2.68-7.33,5.17-10.93,7.47-2.42,1.55-4.86,3.04-7.27,4.46-21.5,12.68-42.33,20.41-57.93,24.99-.03.02-.05.02-.08.02-15.27,4.48-25.48,5.95-26.37,6.06l-1.4-10.23c.21-.03,10.24-1.47,25.39-5.98,15.32-4.52,35.86-12.19,56.69-24.67,1.9-1.15,3.8-2.32,5.7-3.54,16.53-10.61,30.71-22.74,42.55-36.37,28.67-33.03,43.52-74.81,44.28-124.86.02-1.35.03-2.7.03-4.06h10.33Z"/>
          <rect class="cls-1" x="1652.55" y="557.32" width="41.23" height="7.75"/>
          <rect class="cls-1" x="1816.41" y="706.51" width="550.52" height="8.14"/>
          <g>
            <g>
              <g>
                <path class="cls-1" d="M2436.65,648.88c-1.06-12.63,6.41-68-13.34-80.88-19.76-12.91-93.96-4.35-120.66-16.1-30.56-30.16-61.38-64.06-61.38-64.06,0,0-13.22-16.22-44.05-14.21-90.17-3.4-153.22-1.03-193.12,5.15-3.25.49-6.35,1.03-9.31,1.58-7.68,1.44-14.34,3.04-19.98,4.8,0,0-94.6,90.57-71.53,158.87v.02c2.28,6.84,5.78,13.42,10.64,19.69v.02c2.45,3.14,5.26,6.24,8.45,9.2,7.13-28.72,19.1-67.13,70.52-65,51.4,2.13,50.22,71.21,50.22,71.21l255.3,4.69s-14.96-74.3,61.9-74.83c60.32-.66,59.74,62.48,59.74,62.48l16.99.2s14.55-14.98-.38-22.82ZM1943.86,555.98c-11.61,7.25-19.38,0-19.38,0,9.58-18.91,51.63-65.93,51.63-65.93,0,0,5.34-1.53,5.61,7.04.29,8.56-26.28,51.64-37.86,58.89ZM2252.63,564.85h-244.88c-9.68,0-15.58-11.98-10.5-21.25l18.66-33.99c5.34-9.69,14.7-15.59,24.82-15.59h165.69c6.67,0,12.97,3.5,17.07,9.45l34.18,49.83c3.24,4.72.26,11.56-5.03,11.56ZM2275.41,554.69s-35.65-46.63-39.24-52.24c-3.62-5.6,2.42-10.07,2.42-10.07,0,0,37.78,39.5,57.65,59.91-6.39,10.03-20.84,2.41-20.84,2.41Z"/>
                <path class="cls-1" d="M1984.45,618.35c-26.14,0-47.32,21.19-47.32,47.35,0,17.39,9.37,32.58,23.35,40.8,7.02,4.14,15.21,6.52,23.97,6.52s16.94-2.38,23.97-6.52c13.98-8.22,23.37-23.41,23.37-40.8,0-26.16-21.21-47.35-47.33-47.35ZM1984.45,648.68c9.4,0,16.99,7.62,16.99,17.02s-7.59,16.99-16.99,16.99-17-7.62-17-16.99,7.61-17.02,17-17.02Z"/>
                <path class="cls-1" d="M2357.86,618.35c-26.13,0-47.33,21.19-47.33,47.35,0,17.39,9.38,32.58,23.37,40.8,7.02,4.14,15.23,6.52,23.97,6.52,3.1,0,6.13-.29,9.06-.87,21.82-4.22,38.29-23.41,38.29-46.44,0-26.16-21.21-47.35-47.35-47.35ZM2357.86,682.69c-9.38,0-16.99-7.62-16.99-16.99s7.61-17.02,16.99-17.02,17,7.62,17,17.02-7.61,16.99-17,16.99Z"/>
              </g>
              <ellipse class="cls-1" cx="1903.09" cy="656.71" rx="13.01" ry="12.69"/>
            </g>
            <g>
              <path class="cls-1" d="M2052.8,379.65c1.89,4.3,12.21,4.33,13.38,5.5,1.17,1.17,1.59,5.78,2.17,9.68,3,1.17,6.84-12.02,6.84-15.35s-.92-9.26-6.17-14.85c-.91-.97-2.59-.75-6.12.76-5.05,2.16-11.63,10.8-10.1,14.27Z"/>
              <path class="cls-1" d="M2042.24,358.57c2.81,0,5.08,2.28,5.08,5.1s-2.28,5.1-5.08,5.1-5.12-2.29-5.12-5.1,2.28-5.1,5.12-5.1Z"/>
              <path class="cls-1" d="M2063.31,360.57c-1.58-.15-5.12,1.87-8.29,4.97.28-.31.57-.61.88-.9.92-3.05-4.22-9.08-8.04-9.95-3.82-.88-16.86-2.09-17.56,6.42-.7,8.52,5.91,14.79,9.4,16,3.01,1.05,8.02-.44,9.29-.84-.02.11-.04.2-.04.31-.6,8.26,9.41,10.55,9.41,10.55h-7.21l-5.01,4s1.6,2.84-3.5,31.42c-5.87,25.12-32.37,41.67-45.68,45.55,2.72,2.88,6.26,6.92,7.1,9.12.2.55.22,1.06.06,1.54-.81,2.66-6.48,3.93-7.76,3.67-.35-.07-.9-.88-1.54-2.09-1.87-3.49-4.55-10.28-5.3-12.2-.04-.04-.04-.09-.06-.13-.09-.24-.16-.4-.16-.4h.02c-.04-.24-.04-.5.04-.79,14.99-11.95,23.18-36.22,11.56-22.02-11.62,14.22-76.3,27.32-77,25.16-2.61-2.86,17.29-8.68,18.2-21.21-2.11,1.6-13.62,5.54-20.22,7.74-1.34.44-2.42-1.14-1.5-2.22,6.94-8.31,23.47-28.28,29.8-37.82,11.62-17.49,47.91-41.91,47.91-41.91,14.83-26.02,27.32-33.53,42.45-32.63,15.12.9,25.87,18.94,22.77,18.66Z"/>
              <path class="cls-1" d="M1916.77,477.62s-42.04,27.03-36.03,47.44c3.31,11.87,44.36-38.19,50.96-46.34.8-.98,4.09-5.21,3.02-5.41-4.54-.85-9.68-.88-17.95,4.31Z"/>
              <path class="cls-1" d="M1936.99,477.31c-9.08,13.81-18.82,24.96-31.23,37.5,5.61,6.82,41.64-32.25,45.18-40.36.68-1.56,1.26-4.48-2.05-3.51-7.01,2.06-7.69-.05-11.9,6.37Z"/>
            </g>
          </g>
          <rect class="cls-1" x="2123.56" y="492.37" width="13.86" height="96.94"/>
        </g>
        <rect class="cls-2" y="0" width="2791.28" height="1064.76"/>
      </g>
    </g>
  </g>
</svg>